<?xml version="1.0" encoding="UTF-8" standalone="no"?>
<!-- Generator: Adobe Illustrator 15.0.0, SVG Export Plug-In . SVG Version: 6.00 Build 0)  -->

<svg
   xmlns:dc="http://purl.org/dc/elements/1.1/"
   xmlns:cc="http://creativecommons.org/ns#"
   xmlns:rdf="http://www.w3.org/1999/02/22-rdf-syntax-ns#"
   xmlns:svg="http://www.w3.org/2000/svg"
   xmlns="http://www.w3.org/2000/svg"
   xmlns:sodipodi="http://sodipodi.sourceforge.net/DTD/sodipodi-0.dtd"
   xmlns:inkscape="http://www.inkscape.org/namespaces/inkscape"
   version="1.1"
   id="Ebene_1"
   inkscape:version="0.91 r13725"
   sodipodi:docname="dca56ec901366d12ad9a977e446e3353.svg"
   x="0px"
   y="0px"
   width="40"
   height="40"
   viewBox="0 0 40 40"
   enable-background="new 0 0 288 48"
   xml:space="preserve"><metadata
     id="metadata55"><rdf:RDF><cc:Work
         rdf:about=""><dc:format>image/svg+xml</dc:format><dc:type
           rdf:resource="http://purl.org/dc/dcmitype/StillImage" /><dc:title></dc:title></cc:Work></rdf:RDF></metadata><defs
     id="defs53" /><sodipodi:namedview
     id="namedview101"
     borderopacity="1"
     showgrid="false"
     inkscape:window-maximized="1"
     fit-margin-top="0"
     fit-margin-left="0"
     fit-margin-right="0"
     fit-margin-bottom="0"
     inkscape:zoom="7.8371001"
     inkscape:cx="20.473077"
     inkscape:cy="16.163262"
     inkscape:window-width="1854"
     inkscape:window-height="1177"
     inkscape:window-x="58"
     inkscape:window-y="-8"
     inkscape:current-layer="Ebene_1" /><g
     id="g3904"
     transform="translate(0,-7.9990005)"><rect
       style="fill:#98191d"
       height="40"
       width="40"
       y="7.9990005"
       x="0"
       id="rect5" /><g
       transform="matrix(0.7632018,0,0,0.7632018,-2.8712423,9.6825445)"
       id="g3890"><polygon
         id="polygon7"
         points="193.027,13.573 193.386,13.699 193.756,13.814 194.135,13.919 194.515,14.035 194.906,14.141 194.906,39.566 191.97,38.63 191.97,13.204 192.314,13.33 192.671,13.457 "
         transform="translate(-181.08701,-0.00100723)"
         style="fill:#ffffff" /><polygon
         id="polygon9"
         points="208.721,16.036 209.09,16.046 209.447,16.057 209.816,16.057 210.195,16.067 210.564,16.067 210.564,41.514 207.627,41.439 207.627,15.993 207.995,16.015 208.352,16.025 "
         transform="translate(-181.08701,-0.00100723)"
         style="fill:#ffffff" /><polygon
         id="polygon11"
         points="216.936,15.846 217.305,15.815 217.675,15.783 218.03,15.742 218.389,15.709 218.389,41.156 215.461,41.389 215.461,15.941 215.83,15.92 216.197,15.899 216.567,15.868 "
         transform="translate(-181.08701,-0.00100723)"
         style="fill:#ffffff" /><polygon
         id="polygon13"
         points="224.783,14.72 225.152,14.646 225.509,14.563 225.866,14.478 226.223,14.394 226.223,39.83 223.285,40.462 223.285,15.025 223.665,14.951 224.043,14.877 224.414,14.804 "
         transform="translate(-181.08701,-0.00100723)"
         style="fill:#ffffff" /><polygon
         id="polygon15"
         points="232.686,12.077 233.056,11.877 233.4,11.688 233.723,11.487 234.046,11.277 234.046,36.714 231.107,38.238 231.107,12.814 231.523,12.635 231.926,12.446 232.316,12.267 "
         transform="translate(-181.08701,-0.00100723)"
         style="fill:#ffffff" /><polygon
         id="polygon17"
         points="200.873,15.373 201.244,15.415 201.613,15.468 201.98,15.52 202.361,15.562 202.741,15.604 202.741,41.051 199.803,40.641 199.803,15.205 200.16,15.257 200.518,15.309 "
         transform="translate(-181.08701,-0.00100723)"
         style="fill:#ffffff" /><polygon
         id="polygon19"
         points="228.342,8.761 228.723,8.876 229.08,9.003 229.438,9.119 229.795,9.245 230.129,9.372 230.129,34.756 227.201,33.809 227.201,8.434 227.582,8.54 227.975,8.656 "
         transform="translate(-181.08701,-0.00100723)"
         style="fill:#ffffff" /><polygon
         id="polygon21"
         points="220.497,7.098 220.865,7.15 221.223,7.203 221.592,7.255 221.947,7.309 222.305,7.371 222.305,32.744 219.367,32.334 219.367,6.96 219.748,7.002 220.116,7.045 "
         transform="translate(-181.08701,-0.00100723)"
         style="fill:#ffffff" /><polygon
         id="polygon23"
         points="214.113,6.55 214.482,6.56 214.482,31.943 214.113,31.924 213.756,31.912 213.388,31.9 213.02,31.893 212.65,31.881 212.281,31.881 211.914,31.871 211.544,31.871 211.544,6.487 211.928,6.487 212.281,6.497 212.65,6.497 213.02,6.508 213.388,6.518 213.756,6.529 "
         transform="translate(-181.08701,-0.00100723)"
         style="fill:#ffffff" /><polygon
         id="polygon25"
         points="204.436,32.164 204.078,32.195 203.721,32.229 203.721,6.845 204.078,6.813 204.436,6.781 204.805,6.75 205.161,6.719 205.529,6.687 205.91,6.666 206.277,6.634 206.646,6.613 206.646,31.997 206.277,32.018 205.91,32.039 205.529,32.07 205.161,32.104 204.805,32.123 "
         transform="translate(-181.08701,-0.00100723)"
         style="fill:#ffffff" /><polygon
         id="polygon27"
         points="189.411,10.499 189.791,10.309 190.183,10.12 190.574,9.94 190.988,9.761 190.988,35.146 188.063,36.671 188.063,11.288 188.374,11.088 188.707,10.888 189.054,10.688 "
         transform="translate(-181.08701,-0.00100723)"
         style="fill:#ffffff" /><polygon
         id="polygon29"
         points="197.326,7.834 197.695,7.761 198.063,7.687 198.444,7.613 198.824,7.54 198.824,32.923 195.887,33.555 195.887,8.171 196.242,8.087 196.6,8.002 196.957,7.918 "
         transform="translate(-181.08701,-0.00100723)"
         style="fill:#ffffff" /></g></g></svg>